HIERARCHY
ROOT Hips
{
	OFFSET -3.958830 18.904000 13.208200
	CHANNELS 6 Xposition Yposition Zposition Zrotation Yrotation Xrotation 
	JOINT LHipJoint
	{
		OFFSET 0.000000 0.000000 0.000000
		CHANNELS 3 Zrotation Yrotation Xrotation
		JOINT LeftUpLeg
		{
			OFFSET 1.800000 -1.400000 0.085000
			CHANNELS 3 Zrotation Yrotation Xrotation
			JOINT LeftLeg
			{
				OFFSET 2.215000 -6.000000 0.000000
				CHANNELS 3 Zrotation Yrotation Xrotation
				JOINT LeftFoot
				{
					OFFSET 2.500000 -6.900000 0.000000
					CHANNELS 3 Zrotation Yrotation Xrotation
					JOINT LeftToeBase
					{
						OFFSET 0.200000 -0.500000 1.950000
						CHANNELS 3 Zrotation Yrotation Xrotation
						End Site
						{
							OFFSET 0.000000 0.000000 0.000000
						}
					}
				}
			}
		}
	}
	JOINT RHipJoint
	{
		OFFSET 0.000000 0.000000 0.000000
		CHANNELS 3 Zrotation Yrotation Xrotation
		JOINT RightUpLeg
		{
			OFFSET -1.800000 -1.400000 0.085000
			CHANNELS 3 Zrotation Yrotation Xrotation
			JOINT RightLeg
			{
				OFFSET -2.215000 -6.000000 0.000000
				CHANNELS 3 Zrotation Yrotation Xrotation
				JOINT RightFoot
				{
					OFFSET -2.500000 -6.900000 0.000000
					CHANNELS 3 Zrotation Yrotation Xrotation
					JOINT RightToeBase
					{
						OFFSET -0.200000 -0.500000 1.950000
						CHANNELS 3 Zrotation Yrotation Xrotation
						End Site
						{
							OFFSET 0.000000 0.000000 0.000000
						}
					}
				}
			}
		}
	}
	JOINT LowerBack
	{
		OFFSET 0.000000 0.000000 0.000000
		CHANNELS 3 Zrotation Yrotation Xrotation
		JOINT Spine
		{
			OFFSET -0.087000 1.940000 -0.288900
			CHANNELS 3 Zrotation Yrotation Xrotation
			JOINT Spine1
			{
				OFFSET 0.000000 1.950000 0.060000
				CHANNELS 3 Zrotation Yrotation Xrotation
				JOINT Neck
				{
					OFFSET 0.000000 0.000000 0.000000
					CHANNELS 3 Zrotation Yrotation Xrotation
					JOINT Neck1
					{
						OFFSET 0.000000 1.600000 0.340000
						CHANNELS 3 Zrotation Yrotation Xrotation
						JOINT Head
						{
							OFFSET 0.000000 1.667000 -0.240000
							CHANNELS 3 Zrotation Yrotation Xrotation
							End Site
							{
								OFFSET 0.000000 0.000000 0.000000
							}
						}
					}
				}
				JOINT LeftShoulder
				{
					OFFSET 0.000000 0.000000 0.000000
					CHANNELS 3 Zrotation Yrotation Xrotation
					JOINT LeftArm
					{
						OFFSET 2.700000 1.550000 -0.730000
						CHANNELS 3 Zrotation Yrotation Xrotation
						JOINT LeftForeArm
						{
							OFFSET 5.450000 0.000000 0.000000
							CHANNELS 3 Zrotation Yrotation Xrotation
							JOINT LeftHand
							{
								OFFSET 3.450000 0.000000 0.000000
								CHANNELS 3 Zrotation Yrotation Xrotation
								JOINT LeftHandIndex1
								{
									OFFSET 0.750000 0.000000 0.000000
									CHANNELS 3 Zrotation Yrotation Xrotation
									End Site
									{
										OFFSET 0.000000 0.000000 0.000000
									}
								}
							}
						}
					}
				}
				JOINT RightShoulder
				{
					OFFSET 0.000000 0.000000 0.000000
					CHANNELS 3 Zrotation Yrotation Xrotation
					JOINT RightArm
					{
						OFFSET -2.700000 1.550000 -0.730000
						CHANNELS 3 Zrotation Yrotation Xrotation
						JOINT RightForeArm
						{
							OFFSET -5.450000 0.000000 0.000000
							CHANNELS 3 Zrotation Yrotation Xrotation
							JOINT RightHand
							{
								OFFSET -3.450000 0.000000 0.000000
								CHANNELS 3 Zrotation Yrotation Xrotation
								JOINT RightHandIndex1
								{
									OFFSET -0.750000 0.000000 0.000000
									CHANNELS 3 Zrotation Yrotation Xrotation
									End Site
									{
										OFFSET 0.000000 0.000000 0.000000
									}
								}
							}
						}
					}
				}
			}
		}
	}
}
MOTION
Frames: 9
Frame Time: 0.016667
0.266590 17.770000 -3.031550 -1.607508 1.763335 0.961134 -15.195765 13.452754 2.823385 6.733018 -0.679191 -9.357881 -6.805342 5.072833 6.580040 -0.012933 3.807583 3.352880 -0.157600 -0.232950 -0.134220 18.208369 -11.116430 2.313862 -7.280548 0.448487 -12.800391 3.820882 -4.457230 14.337391 0.129901 -3.356697 3.252298 -0.059280 0.346700 0.076750 -3.467561 -1.698744 -6.748494 5.726413 -1.860222 2.833910 -0.422914 -2.193179 5.415916 1.188466 -1.342370 -6.870746 -4.388618 3.205369 36.355888 -2.727630 3.552950 6.457730 -23.338599 -4.300287 3.008053 -51.696196 -3.249763 -2.358716 -22.446355 -14.575582 1.377932 -4.017447 3.125393 -0.108240 0.292090 -0.240760 0.036990 21.542958 5.269356 2.856290 51.353160 5.197505 -7.285818 7.896097 31.014726 0.279348 2.443722 -1.413138 -0.140140 0.048210 0.128500 0.013160 
0.266440 17.769790 -3.035300 -1.639358 1.821896 0.944487 -15.196490 13.460387 2.822748 6.765716 -0.689884 -9.444421 -6.760939 5.072431 6.659069 -0.014180 3.798504 3.354502 -0.154550 -0.229540 -0.130830 18.204570 -11.117231 2.317573 -7.327762 0.454344 -12.838521 3.930712 -4.490802 14.402005 0.127148 -3.359941 3.250436 -0.058800 0.342740 0.075090 -3.461998 -1.709524 -6.757709 5.687726 -1.868849 2.908497 -0.323726 -2.206523 5.438364 1.153628 -1.309124 -6.926649 -4.368959 3.153570 36.546251 -2.702210 3.505970 6.435140 -23.270502 -4.447301 3.072584 -51.514674 -3.288016 -2.340618 -22.797968 -14.715527 1.441723 -4.010871 3.127870 -0.105270 0.288220 -0.237120 0.037550 21.555434 5.399606 2.888390 51.332322 5.248670 -7.297365 7.630612 31.008143 0.221817 2.444012 -1.410284 -0.139120 0.049040 0.125540 0.012780 
0.267990 17.768780 -3.040320 -1.648805 1.819652 0.922992 -15.197316 13.472408 2.822806 6.754317 -0.701850 -9.538726 -6.656162 5.055180 6.736599 -0.014191 3.775370 3.357947 -0.146370 -0.219790 -0.122150 18.199315 -11.117020 2.322954 -7.449417 0.458626 -12.891087 4.118676 -4.541354 14.456678 0.121082 -3.363315 3.245072 -0.056860 0.330240 0.073580 -3.453624 -1.729733 -6.770938 5.645715 -1.864994 3.017976 -0.154491 -2.207579 5.486133 1.080738 -1.367223 -7.010203 -4.563962 3.069425 36.874036 -2.781090 3.416540 6.344300 -23.100683 -4.584482 3.145320 -51.322790 -3.361032 -2.316767 -23.414143 -14.976450 1.558661 -3.997328 3.135279 -0.100920 0.278780 -0.227880 0.037460 21.541493 5.602890 2.949498 51.265701 5.304699 -7.324065 7.283830 31.017707 0.150293 2.446921 -1.408485 -0.133660 0.046510 0.118530 0.012210 
0.266130 17.768930 -3.043520 -1.761344 1.747218 0.873784 -15.194667 13.484422 2.818637 6.903180 -0.703321 -9.619167 -6.601869 5.071660 6.895675 -0.013901 3.771003 3.353777 -0.142780 -0.216360 -0.116820 18.197216 -11.121330 2.333973 -7.366765 0.466678 -12.848025 4.176527 -4.560699 14.499756 0.115553 -3.364088 3.244299 -0.058670 0.320060 0.074380 -3.452602 -1.736617 -6.787863 5.661920 -1.842447 3.130604 0.025302 -2.200772 5.569476 1.018650 -1.347388 -7.149986 -4.624233 3.005494 37.412590 -2.908470 3.429830 6.408450 -22.907211 -4.887811 3.305032 -50.827601 -3.339662 -2.296398 -24.304538 -15.210116 1.700452 -3.986754 3.144460 -0.095620 0.273040 -0.220100 0.036100 21.487552 5.918805 3.022446 51.220063 5.502183 -7.197915 6.984764 30.557189 0.077843 2.452480 -1.402202 -0.129290 0.042320 0.115230 0.010230 
0.265810 17.768940 -3.047140 -1.841626 1.612318 0.825625 -15.190895 13.495325 2.810921 6.947832 -0.699578 -9.680506 -6.453947 5.067207 7.062421 -0.009645 3.749031 3.357309 -0.138560 -0.208360 -0.114090 18.196567 -11.130368 2.346695 -7.311240 0.457554 -12.738042 4.197522 -4.556337 14.422791 0.110102 -3.360195 3.248573 -0.059640 0.311920 0.071100 -3.454409 -1.732762 -6.801450 5.639119 -1.767022 3.220460 0.174883 -2.137513 5.712772 0.948450 -1.328315 -7.331384 -4.684522 3.053697 38.076165 -2.829450 3.471120 6.557280 -22.579755 -5.250111 3.501691 -50.258903 -3.343748 -2.262528 -25.240520 -15.442718 1.858586 -3.973578 3.154141 -0.093560 0.266370 -0.212790 0.037450 21.316422 6.306662 3.119027 51.179748 5.784741 -6.935630 6.880804 29.740178 0.038161 2.465044 -1.394340 -0.123680 0.040780 0.109320 0.011780 
0.263100 17.765570 -3.050860 -1.862099 1.390996 0.758946 -15.188696 13.508773 2.806692 6.945617 -0.697216 -9.752596 -6.407825 5.089915 7.284886 -0.008983 3.737562 3.354840 -0.127790 -0.194090 -0.107300 18.195422 -11.130313 2.356047 -7.315026 0.444092 -12.631350 4.244880 -4.551146 14.301343 0.101001 -3.351475 3.250348 -0.055600 0.300470 0.067980 -3.452000 -1.753905 -6.811154 5.556907 -1.732347 3.336180 0.244910 -2.095718 5.918744 0.821050 -1.495750 -7.492735 -5.108261 3.280077 38.744953 -2.683000 3.525140 6.472340 -22.000570 -5.405291 3.646631 -49.581460 -3.346989 -2.245945 -26.392296 -15.904960 2.087175 -3.955677 3.166330 -0.085380 0.254740 -0.201520 0.039410 20.997156 6.615908 3.188858 51.362262 6.158726 -6.658762 7.220922 29.121368 0.095489 2.476559 -1.387872 -0.118730 0.041670 0.102530 0.011890 
0.262100 17.762740 -3.056950 -1.965922 1.260019 0.682542 -15.185651 13.525179 2.802081 7.005878 -0.697117 -9.822596 -6.343732 5.107669 7.487393 -0.009223 3.727944 3.351056 -0.116060 -0.180720 -0.098110 18.195561 -11.127970 2.365253 -7.214004 0.441900 -12.570201 4.257836 -4.545865 14.282773 0.091172 -3.340113 3.250582 -0.051900 0.286880 0.065910 -3.454042 -1.783065 -6.820974 5.549010 -1.739375 3.459329 0.349730 -2.103412 6.185194 0.688593 -1.670497 -7.685543 -5.571239 3.548432 39.550683 -2.561050 3.627820 6.445200 -21.192643 -5.536412 3.800260 -48.994255 -3.456216 -2.200062 -27.619777 -16.536706 2.377093 -3.936267 3.181036 -0.074950 0.241790 -0.188890 0.040950 20.459616 6.885783 3.269638 51.596366 6.571441 -6.362031 7.932268 28.661633 0.236992 2.488764 -1.385235 -0.114060 0.040320 0.094860 0.010610 
0.261260 17.761920 -3.062550 -2.057546 1.117961 0.581242 -15.182607 13.541836 2.801357 7.102809 -0.694935 -9.878118 -6.355050 5.140497 7.666161 -0.007111 3.725980 3.344128 -0.101320 -0.163830 -0.086610 18.195298 -11.121823 2.373501 -7.152421 0.436224 -12.490685 4.332881 -4.558266 14.276183 0.079454 -3.332094 3.250266 -0.046480 0.271590 0.062930 -3.455394 -1.822073 -6.834981 5.556148 -1.768162 3.624205 0.440154 -2.125769 6.405488 0.532305 -1.905218 -7.853722 -6.183490 3.837618 40.433303 -2.426910 3.680120 6.356530 -20.500146 -5.620359 3.920560 -48.154058 -3.525756 -2.134738 -28.699575 -17.098072 2.659667 -3.915090 3.193023 -0.063980 0.226950 -0.174410 0.043320 20.081974 7.148437 3.338409 51.736366 6.937995 -6.085721 8.615089 28.218996 0.371582 2.500707 -1.381127 -0.108340 0.040820 0.085460 0.009630 
0.263650 17.761480 -3.067280 -2.101230 0.985310 0.510935 -15.181914 13.558611 2.801534 7.078265 -0.694393 -9.904459 -6.302649 5.147825 7.784857 -0.002905 3.714722 3.342350 -0.093240 -0.154270 -0.077920 18.193879 -11.115975 2.377135 -7.130699 0.433262 -12.468409 4.354223 -4.558781 14.284721 0.074547 -3.324458 3.249982 -0.045160 0.259430 0.061050 -3.452138 -1.862732 -6.842158 5.518265 -1.807346 3.741809 0.506133 -2.161973 6.587804 0.392866 -2.101211 -7.982076 -6.717360 4.116739 41.220378 -2.459250 3.852870 6.508420 -19.936742 -5.680141 4.009324 -47.221671 -3.615135 -2.027645 -29.447877 -17.454636 2.881231 -3.901829 3.205788 -0.060800 0.218390 -0.166120 0.042700 19.801333 7.347771 3.379915 51.976260 7.263745 -5.830442 9.105835 27.740343 0.451128 2.513974 -1.380645 -0.102330 0.036160 0.078650 0.008600 
